<svg width="20.000000" height="20.000000" viewBox="0 0 20 20" fill="none" xmlns="http://www.w3.org/2000/svg" xmlns:xlink="http://www.w3.org/1999/xlink">
	<desc>
			Created with Pixso.
	</desc>
	<defs>
		<clipPath id="clip11_782">
			<rect rx="0.000000" width="19.000000" height="19.000000" transform="translate(0.500000 0.500000)" fill="white" fill-opacity="0"/>
		</clipPath>
	</defs>
	<rect rx="0.000000" width="19.000000" height="19.000000" transform="translate(0.500000 0.500000)" fill="#FFFFFF" fill-opacity="0"/>
	<g clip-path="url(#clip11_782)">
		<path d="M15.85 12.96C14.7 12.96 13.67 13.53 13.03 14.39L7.51 11.57C7.6 11.26 7.65 10.93 7.65 10.58C7.65 10.11 7.56 9.67 7.39 9.26L13.18 5.79C13.82 6.54 14.78 7.03 15.85 7.03C17.79 7.03 19.37 5.45 19.37 3.51C19.37 1.57 17.79 0 15.85 0C13.92 0 12.34 1.57 12.34 3.51C12.34 3.96 12.42 4.39 12.58 4.78L6.78 8.27C6.13 7.53 5.19 7.07 4.14 7.07C2.2 7.07 0.62 8.64 0.62 10.58C0.62 12.52 2.2 14.1 4.14 14.1C5.31 14.1 6.36 13.52 6.99 12.63L12.5 15.44C12.39 15.77 12.34 16.12 12.34 16.48C12.34 18.42 13.92 20 15.85 20C17.79 20 19.37 18.42 19.37 16.48C19.37 14.54 17.79 12.96 15.85 12.96ZM15.85 1.17C17.15 1.17 18.2 2.22 18.2 3.51C18.2 4.8 17.15 5.85 15.85 5.85C14.56 5.85 13.51 4.8 13.51 3.51C13.51 2.22 14.56 1.17 15.85 1.17ZM4.14 12.92C2.84 12.92 1.79 11.87 1.79 10.58C1.79 9.29 2.84 8.24 4.14 8.24C5.43 8.24 6.48 9.29 6.48 10.58C6.48 11.87 5.43 12.92 4.14 12.92ZM15.85 18.82C14.56 18.82 13.51 17.77 13.51 16.48C13.51 15.19 14.56 14.14 15.85 14.14C17.15 14.14 18.2 15.19 18.2 16.48C18.2 17.77 17.15 18.82 15.85 18.82Z" fill="#FFFFFF" fill-opacity="1.000000" fill-rule="nonzero"/>
	</g>
</svg>
